<?xml version="1.0" encoding="utf-8"?>
<!-- Generator: Adobe Illustrator 25.4.1, SVG Export Plug-In . SVG Version: 6.00 Build 0)  -->
<svg version="1.1" id="Layer_1" xmlns="http://www.w3.org/2000/svg" xmlns:xlink="http://www.w3.org/1999/xlink" x="0px" y="0px"
	 viewBox="0 0 150 150" style="enable-background:new 0 0 150 150;" xml:space="preserve">
<style type="text/css">
	.st0{fill:#333333;}
	.st1{fill:none;}
	.st2{fill:#20A09C;}
</style>
<g>
	<g>
		<path class="st0" d="M76,32.9c-8.2,1.9-15.9,5.4-22.1,10.6c-6.3,5.1-11.1,11.7-13.7,19.1c-0.3,0.9-0.6,1.9-0.9,2.8
			c-0.3,0.9-0.4,1.8-0.6,2.8c-0.3,1.9-0.6,3.9-0.7,5.8c-0.2,3.9,0,7.8,0.8,11.6c0.8,3.8,2,7.4,3.8,10.7c1.8,3.3,4,6.5,6.7,9.2
			s5.8,5,9.1,6.9c3.3,1.9,6.9,3.3,10.7,4.3c3.7,1,7.6,1.4,11.5,1.3s7.7-0.8,11.4-2c7.4-2.4,14.3-6.9,19.5-13
			c5.3-6.1,8.9-13.7,10.7-22c0,8.5-2.7,17.1-7.5,24.4c-2.5,3.6-5.5,6.9-8.9,9.8c-3.4,2.8-7.4,5.1-11.5,6.8
			c-8.4,3.4-17.9,4.2-26.8,2.2c-4.5-1-8.8-2.6-12.8-4.8c-4-2.2-7.7-5-11-8.2c-3.2-3.3-5.9-7.1-8-11.2s-3.5-8.5-4.3-13
			c-0.7-4.5-0.8-9.1-0.4-13.5c0.3-2.2,0.6-4.5,1.1-6.7c0.3-1.1,0.6-2.2,1-3.3s0.8-2.1,1.2-3.2c3.6-8.3,9.9-15.2,17.2-19.9
			C59,35.6,67.5,33,76,32.9z"/>
	</g>
	<ellipse class="st0" cx="77.9" cy="77.1" rx="3" ry="3"/>
	<g>
		<path class="st0" d="M49.8,75.3c-0.3-5.4,1.2-11,4.2-15.8s7.5-8.8,12.8-11.1c5.3-2.4,11.4-3.1,17.2-2.2c5.8,1,11.4,3.7,15.7,7.8
			c0.5,0.5,1,1.1,1.6,1.6l1.4,1.7c0.2,0.3,0.5,0.6,0.7,0.9l0.6,0.9c0.4,0.6,0.8,1.2,1.2,1.9c1.4,2.6,2.4,5.5,3,8.3
			c1.1,5.8,0.7,11.8-1.3,17.2c-1.9,5.4-5.4,10.4-10.1,13.7c-4.7,3.2-10.4,4.7-15.8,4.5c5.3-1.1,10.2-3.3,13.9-6.8
			c3.7-3.4,6.2-8,7.4-12.8l0.4-1.8l0.3-1.8c0.1-0.6,0.2-1.2,0.2-1.8c0-0.6,0.1-1.2,0.1-1.8c0-2.5-0.3-4.9-0.8-7.3
			c-0.6-2.3-1.5-4.6-2.6-6.7c-1.2-2-2.6-4-4.4-5.6c-3.4-3.3-7.9-5.6-12.6-6.5c-4.7-1-9.8-0.7-14.4,0.9c-4.7,1.6-8.9,4.6-12.2,8.5
			C53.1,65.1,50.9,70,49.8,75.3z"/>
	</g>
	<g>
		<path class="st0" d="M78.9,61.4c3-0.1,6,0.8,8.7,2.5c2.6,1.7,4.9,4.1,6.2,7.1c0.7,1.4,1.1,3,1.4,4.7c0.2,1.6,0.2,3.3-0.1,5
			c-0.5,3.3-2.3,6.4-4.7,8.7c-1.2,1.1-2.6,2.1-4,2.9c-1.5,0.7-3,1.4-4.6,1.7c-0.8,0.2-1.6,0.3-2.4,0.4c-0.8,0-1.6,0.1-2.5,0
			c-1.6-0.1-3.3-0.5-4.8-1.1c-3.1-1.2-5.6-3.4-7.3-6c-1.7-2.6-2.6-5.7-2.7-8.6c0.9,2.8,2.3,5.4,4.3,7.5c1.9,2.1,4.2,3.6,6.8,4.3
			c5.1,1.4,10.8-0.2,14.5-3.8c0.9-0.9,1.8-1.9,2.4-3c0.4-0.5,0.6-1.1,0.8-1.7l0.3-0.9c0.1-0.3,0.2-0.6,0.2-0.9l0.2-0.9l0.1-1
			c0.1-0.6,0-1.3,0-1.9c-0.1-0.6-0.1-1.3-0.3-1.9l-0.2-1l-0.3-0.9c-0.2-0.6-0.5-1.2-0.8-1.9c-0.4-0.6-0.6-1.2-1-1.7
			c-0.7-1.2-1.7-2.2-2.7-3.1C84.4,63.6,81.8,62.2,78.9,61.4z"/>
	</g>
	<g>
		<path class="st0" d="M85.9,76.2c-1.2-2.7-3.4-4.5-5.8-5.1s-4.9,0.1-6.6,1.7s-2.5,4-2,6.4s2.4,4.6,5.1,5.7c-1.5,0.1-3-0.4-4.3-1.2
			c-0.6-0.4-1.2-1-1.8-1.6c-0.5-0.6-0.9-1.3-1.3-2.1c-0.6-1.5-0.8-3.3-0.4-5c0.2-0.8,0.5-1.6,0.9-2.4c0.4-0.7,1-1.4,1.6-2
			c1.3-1.1,2.8-2,4.5-2.3s3.4-0.1,4.9,0.5s2.8,1.7,3.7,3C85.5,73.2,86,74.7,85.9,76.2z"/>
	</g>
	<g>
		<path class="st0" d="M73.8,141c-3-0.1-6.1-0.3-9.1-0.8c-3-0.5-6-1.3-9-2.2c-2.9-1-5.9-2.1-8.6-3.6c-1.4-0.7-2.8-1.5-4.1-2.2
			c-1.3-0.8-2.7-1.6-4-2.5c-10.4-7.1-18.8-17.3-24-29.1c-5.1-11.8-6.9-25.2-4.4-38.1c0.1-0.8,0.3-1.6,0.5-2.4
			c0.2-0.8,0.3-1.6,0.6-2.4c0.5-1.6,0.9-3.2,1.5-4.7c1.1-3.1,2.5-6.1,4-9c1.6-2.9,3.4-5.6,5.4-8.2c2-2.6,4.2-5.1,6.5-7.3
			c9.4-9.1,21.3-15.4,34.1-18.1c12.7-2.7,26.3-1.8,38.3,3.4c12,5.1,21.8,14.2,28.4,24.8c6.6,10.7,10.3,23,10.7,35.2
			c-2.6-11.9-7.4-23.1-14.7-32.4c-7.2-9.3-16.7-16.5-27.3-20.3C88,17.2,76.3,17,65.3,19.6c-2.7,0.7-5.4,1.5-8.1,2.5
			c-2.6,1.1-5.2,2.2-7.6,3.6c-2.5,1.4-4.9,2.8-7.1,4.5c-1.2,0.8-2.2,1.7-3.3,2.6c-0.5,0.4-1,0.9-1.6,1.4c-0.5,0.5-1,0.9-1.5,1.4
			C28,43.3,22.2,53.4,19.8,64.3c-2.5,10.9-1.5,22.6,2.4,33.3c3.9,10.7,10.7,20.6,19.6,28.2c4.4,3.9,9.5,7,14.8,9.6
			c2.7,1.2,5.5,2.4,8.3,3.3C67.9,139.7,70.9,140.4,73.8,141z"/>
	</g>
	<g>
		
			<ellipse transform="matrix(0.9968 -7.985330e-02 7.985330e-02 0.9968 -5.3806 6.9379)" class="st1" cx="84.1" cy="70.7" rx="31.3" ry="31.4"/>
		<path class="st2" d="M79.1,28.8c0.3,0.4,1.1,0.7,2.4,0.7c0.6,0,1.2-0.1,1.8-0.1h0.5c1.5,0,2.7,0.2,3.5,0.7s1.2,1.3,1.3,2.3
			c0,1-0.3,1.7-1,2.2s-1.7,0.8-2.9,0.9c0.7,0.3,1.4,0.4,2,0.4c0.5,0,0.9-0.1,1.3-0.2c0,0.3,0,0.6,0.1,0.9s0.1,0.6,0.3,0.9
			s0.3,0.5,0.5,0.7s0.4,0.2,0.7,0.2c-0.1,0.3-0.4,0.6-0.9,0.8s-1.1,0.3-1.8,0.3c-0.5,0-0.8-0.1-1.2-0.3c-0.3-0.1-0.6-0.3-0.7-0.5
			c-0.2-0.2-0.3-0.4-0.4-0.7c-0.1-0.2-0.2-0.5-0.2-0.8c-0.1-0.3-0.2-0.5-0.2-0.7c-0.1-0.2-0.2-0.4-0.4-0.6c-0.2-0.2-0.4-0.3-0.7-0.3
			v2.1c0,0.5,0.2,1,0.4,1.4l0.1,0.2L79,39.4l0.1-0.2c0.3-0.4,0.4-0.9,0.4-1.4l-0.1-6.7c-0.4-0.3-0.6-0.7-0.6-1.3
			C78.7,29.3,78.8,29,79.1,28.8z M82.8,30c0,0.1-0.1,0.5,0,1.1v3.8h0.3c0.6,0,1.1-0.2,1.4-0.6c0.3-0.4,0.5-1,0.5-1.9
			c0-0.8-0.2-1.5-0.5-1.8C84.2,30.2,83.7,30,83,30H82.8z"/>
		<path class="st2" d="M93.7,39.1c-0.1,0.5-0.1,1,0.1,1.5l0.1,0.2l-4.5-1.1l0.2-0.2c0.4-0.3,0.6-0.8,0.8-1.3l1.7-6.5
			c-0.3-0.4-0.4-0.9-0.3-1.4c0.1-0.4,0.3-0.7,0.6-0.7c0.2,0.5,0.9,1,2.2,1.3c0.6,0.1,1.2,0.2,1.8,0.3l-0.2,0.2
			c-0.3,0.4-0.6,0.8-0.7,1.3L93.7,39.1z"/>
		<path class="st2" d="M99.6,31.5c0.1,0.6,0.7,1.1,1.8,1.7c0.5,0.3,1.1,0.5,1.7,0.7l0.4,0.2c1.3,0.7,2.2,1.5,2.7,2.4
			c0.4,0.9,0.4,1.9-0.2,3.1c-0.6,1.1-1.4,1.7-2.4,1.9s-2.2-0.1-3.5-0.8l-0.4-0.2l-0.5-0.2l-0.4,0.8c-0.2,0.5-0.3,0.9-0.3,1.5v0.3
			l-4.1-2.1l0.2-0.1c0.4-0.2,0.8-0.6,1-1.1l3.1-6c-0.2-0.5-0.2-0.9,0-1.5C99.1,31.8,99.3,31.6,99.6,31.5z M102.3,34.5
			c-0.1,0.2-0.3,0.5-0.4,0.8l-2.2,4.3l0.2,0.1c0.6,0.3,1.1,0.3,1.6,0.1c0.5-0.3,1-0.8,1.5-1.7c0.9-1.7,0.8-2.9-0.4-3.5L102.3,34.5z"
			/>
		<path class="st2" d="M110.5,37.9c-0.1,0.6,0.3,1.3,1.2,2.2c0.4,0.4,0.9,0.8,1.4,1.2l0.3,0.3c1.1,1.1,1.7,2.1,1.8,3.1
			s-0.2,2-1.1,2.9c-0.9,0.9-1.8,1.3-2.8,1.1c-1-0.1-2.1-0.7-3.1-1.8l-0.3-0.3l-0.4-0.4l-0.7,0.7c-0.4,0.4-0.6,0.8-0.7,1.3v0.2
			l-3.3-3.2l0.2-0.1c0.5-0.1,0.9-0.3,1.3-0.7l4.7-4.8c-0.1-0.5,0.1-1,0.5-1.4C109.9,38,110.2,37.9,110.5,37.9z M112.2,41.5
			c-0.2,0.1-0.4,0.4-0.7,0.6l-3.4,3.5l0.2,0.2c0.5,0.4,1,0.6,1.5,0.5c0.6-0.1,1.2-0.5,1.9-1.2c1.4-1.4,1.6-2.5,0.7-3.4L112.2,41.5z"
			/>
		<path class="st2" d="M113.7,59.4l-1.9-3.4l0,0l-2.2-4h0.2c0.5,0.1,1,0,1.5-0.3l5.9-3.3c0-0.5,0.3-0.9,0.9-1.2
			c0.4-0.2,0.7-0.2,0.9-0.1c-0.2,0.5,0,1.3,0.6,2.5c0.3,0.5,0.6,1,1,1.5h-0.3c-0.5,0-1,0.1-1.4,0.4l-5.8,3.2
			c-0.2,0.1-0.4,0.3-0.6,0.5l1.2,2.1c0.6-0.3,1.2-0.4,1.8-0.3c0.6,0.1,1,0.4,1.1,1c-0.3,0-0.8,0.1-1.5,0.5S113.9,59.1,113.7,59.4z"
			/>
		<path class="st2" d="M115.6,68l-0.9-3.9l0,0l-1-4.5l0.2,0.1c0.5,0.2,1,0.2,1.5,0.1l6.6-1.5c0.2-0.5,0.6-0.8,1.2-0.9
			c0.4-0.1,0.7,0,0.9,0.2c-0.3,0.4-0.4,1.2-0.1,2.4c0.1,0.3,0.2,0.6,0.3,1.1c0.1,0.4,0.2,0.7,0.2,0.8l0,0l0.9,3.9
			c-0.4-0.1-0.9,0-1.6,0.1c-0.7,0.2-1.2,0.4-1.4,0.6c-0.2-0.5-0.2-1,0.2-1.5s0.9-0.8,1.6-1l-0.6-2.4c-0.1,0-0.3,0-0.5,0l-2.8,0.6
			l0.2,1c0,0.2,0.1,0.3,0.2,0.4c0.1,0.1,0.2,0.2,0.3,0.2s0.2,0,0.3,0s0.2,0,0.4-0.1c0.1,0.1,0.2,0.4,0.3,0.8l-2.7,0.6
			c-0.1-0.3-0.1-0.6-0.1-0.8c0.7-0.2,0.9-0.5,0.8-1l-0.2-1l-3.5,0.8c-0.2,0.1-0.5,0.1-0.7,0.3l0.6,2.5c0.7-0.1,1.3-0.1,1.8,0.2
			s0.8,0.7,0.8,1.2c-0.3-0.1-0.8-0.1-1.5,0.1C116.4,67.5,115.9,67.7,115.6,68z"/>
		<path class="st2" d="M117.8,77.5c-0.9,0-1.6-0.5-2.1-1.4s-0.7-2-0.6-3.5c0-0.7,0.2-1.5,0.5-2.3s0.6-1.5,0.9-1.9
			c0.5,0.2,0.9,0.4,1.4,0.4c0.3,0,0.5,0,0.8-0.1l-0.5,1.2c-0.6,0.1-1.2,0.4-1.7,0.9c-0.5,0.6-0.7,1.1-0.7,1.7c0,0.4,0,0.7,0.2,1
			c0.1,0.3,0.4,0.4,0.8,0.4c0.4,0,0.7-0.1,1-0.5s0.6-0.8,1-1.4c0.3-0.5,0.6-1.1,1-1.6s0.8-1,1.3-1.3c0.5-0.4,1.1-0.5,1.8-0.5
			c0.9,0.1,1.6,0.5,2,1.3s0.6,1.9,0.5,3.3c0,0.3-0.1,0.8-0.3,1.5s-0.3,1.2-0.3,1.5c0,0.5,0.1,0.9,0.4,1.1c-0.3,0.1-0.5,0.1-0.7,0.1
			c-0.3,0-0.5-0.1-0.8-0.3c-0.3-0.2-0.5-0.4-0.8-0.5c-0.3-0.2-0.6-0.2-1-0.2c0-0.1,0.2-0.5,0.6-1.2c0.6,0,1.2-0.1,1.6-0.6
			c0.4-0.4,0.6-0.9,0.7-1.5c0-0.3-0.1-0.6-0.2-0.8c-0.1-0.2-0.4-0.3-0.7-0.3s-0.7,0.1-1,0.4c-0.3,0.3-0.6,0.6-0.8,1
			s-0.5,0.8-0.8,1.3s-0.6,0.9-0.9,1.3s-0.7,0.7-1.1,1C118.8,77.5,118.3,77.6,117.8,77.5z"/>
	</g>
</g>
<g>
</g>
<g>
</g>
<g>
</g>
<g>
</g>
<g>
</g>
<g>
</g>
<g>
</g>
<g>
</g>
<g>
</g>
<g>
</g>
<g>
</g>
<g>
</g>
<g>
</g>
<g>
</g>
<g>
</g>
</svg>
